<?xml version="1.0" encoding="utf-8"?>
<svg version="1.1" id="ico__twitter" xmlns="http://www.w3.org/2000/svg"
     x="0px" y="0px"
     viewBox="0 0 31 23" style="enable-background:new 0 0 31 23;" xml:space="preserve">
<path fill="#00a9c5" d="M28.66,3.78C28.51,3.64,28.25,3.58,28,3.63l-0.47,0.15c0.36-0.45,0.65-0.94,0.85-1.46
	c0.11-0.24,0.06-0.47-0.12-0.63c-0.18-0.16-0.46-0.2-0.67-0.11c-1.17,0.46-2.3,0.89-3.22,1.14l-0.01,0c0,0-0.01,0-0.01,0
	c-0.72-0.37-2.47-1.19-3.77-1.19c-3.24,0.04-5.87,2.56-5.87,5.62v0.01c-4.54-0.81-7.03-2-9.81-4.66L4.34,1.99L3.99,2.62
	C2.72,4.85,3.1,7.23,5.02,9.21C4.49,9.09,4.06,8.89,3.63,8.57C3.39,8.41,3.12,8.39,2.88,8.52c-0.23,0.1-0.36,0.4-0.29,0.68
	c0.54,1.66,1.82,3.19,3.54,4.25c-0.58-0.04-1.1-0.15-1.62-0.47c-0.2-0.09-0.52-0.11-0.75,0.05c-0.24,0.17-0.33,0.44-0.23,0.68
	c0.78,2.02,2.25,3.15,4.6,3.51c-1.5,0.73-3.18,1.08-5.25,1.12c-0.3,0-0.58,0.18-0.7,0.45c-0.1,0.27-0.03,0.53,0.22,0.76
	c1.63,1.2,5.27,1.91,9.73,1.91c7.99,0,14.5-6.49,14.5-14.48V6.95c1.03-0.49,1.8-1.39,2.2-2.55C28.9,4.18,28.83,3.93,28.66,3.78z
	 M10.19,17.26l1.47-0.97H9.89c-2.39,0-3.88-0.58-4.76-1.89c0.77,0.18,1.57,0.16,2.35,0.13C7.83,14.5,8.2,14.5,8.55,14.5h0.11
	l0.17-1.04l-0.11-0.03c-1.49-0.39-3.41-1.58-4.47-3.38c0.91,0.3,1.85,0.34,2.51,0.34h1.81L7.09,9.43c-0.87-0.56-3.56-2.61-2.4-5.59
	c2.84,2.51,5.61,3.69,10.49,4.51l0.68,0.1V7.16c0-2.47,2.12-4.51,4.73-4.55c0.97-0.04,2.61,0.77,3.14,1.04l0.03,0.02
	c0.32,0.15,0.61,0.18,0.9,0.09c0.61-0.18,1.31-0.43,2.01-0.69c-0.38,0.5-0.84,0.95-1.4,1.37c-0.22,0.15-0.3,0.46-0.18,0.73
	c0.11,0.26,0.45,0.38,0.73,0.27L27.26,5c-0.39,0.55-0.85,0.91-1.41,1.1L25.49,6.2v0.79c0,7.39-5.99,13.41-13.35,13.41
	c-4.17,0-6.61-0.64-7.77-1.06C7.3,19.05,8.96,18.13,10.19,17.26z"/>
</svg>
