<svg id="lluvias-aisladas" xmlns="http://www.w3.org/2000/svg" viewBox="0 0 40 40">
  <defs>
    <style>
      .cls-1,.cls-3{fill:#fff;}.cls-1,.cls-2{stroke:#e8ae37;}.cls-1,.cls-2,.cls-3{stroke-linecap:round;stroke-linejoin:round;stroke-width:1.5px;}.cls-2{fill:none;}.cls-3{stroke:#6dadc6;}
    </style>
  </defs>
  <title>ico__lluvias-aisladas</title>
  <g id="_Grupo_" data-name=" Grupo ">
    <g id="_Grupo_2" data-name=" Grupo 2">
      <g id="_Grupo_3" data-name=" Grupo 3">
        <g id="_Grupo_4" data-name=" Grupo 4">
          <path id="_Trazado_" data-name=" Trazado " class="cls-1"
                d="M25.72,22.36a6.35,6.35,0,0,0-2.94-12,6.11,6.11,0,0,0-6,4.2"/>
          <line id="_Trazado_2" data-name=" Trazado 2" class="cls-2" x1="22.78" y1="7.32" x2="22.78" y2="1"/>
          <g id="_Grupo_5" data-name=" Grupo 5">
            <line id="_Trazado_3" data-name=" Trazado 3" class="cls-2" x1="38.51" y1="16.73" x2="32.19" y2="16.73"/>
          </g>
          <g id="_Grupo_6" data-name=" Grupo 6">
            <line id="_Trazado_4" data-name=" Trazado 4" class="cls-2" x1="31.66" y1="8.14" x2="29.43" y2="10.38"/>
          </g>
          <g id="_Grupo_7" data-name=" Grupo 7">
            <line id="_Trazado_5" data-name=" Trazado 5" class="cls-2" x1="29.43" y1="23.38" x2="31.66" y2="25.61"/>
            <line id="_Trazado_6" data-name=" Trazado 6" class="cls-2" x1="13.37" y1="7.32" x2="16.13" y2="10.07"/>
          </g>
        </g>
      </g>
    </g>
    <g id="_Grupo_8" data-name=" Grupo 8">
      <g id="_Grupo_9" data-name=" Grupo 9">
        <path id="_Trazado_7" data-name=" Trazado 7" class="cls-3"
              d="M25.58,22.9v-.42a4.2,4.2,0,0,0-4.2-4.2,4.15,4.15,0,0,0-2.06.55,6.37,6.37,0,0,0-12.58-.29A6.37,6.37,0,1,0,12.49,29.2,4.84,4.84,0,0,0,20.22,29a4.18,4.18,0,1,0,7-4.66A4.08,4.08,0,0,0,25.58,22.9Z"/>
      </g>
      <g id="_Grupo_10" data-name=" Grupo 10">
        <path id="_Trazado_8" data-name=" Trazado 8" class="cls-3"
              d="M8.21,38A1.44,1.44,0,0,1,7,35.72l1.26-1.95,1.25,1.95a1.57,1.57,0,0,1,.22.79A1.49,1.49,0,0,1,8.21,38Z"/>
        <path id="_Trazado_9" data-name=" Trazado 9" class="cls-3"
              d="M14.69,39a1.47,1.47,0,0,1-1.51-1.44.07.07,0,0,1,0-.05,1.6,1.6,0,0,1,.22-.78l1.27-2,1.3,2a1.49,1.49,0,0,1-.48,2.05,1.57,1.57,0,0,1-.79.22Z"/>
        <path id="_Trazado_10" data-name=" Trazado 10" class="cls-3"
              d="M21.17,38a1.5,1.5,0,0,1-1.49-1.49,1.48,1.48,0,0,1,.23-.79l1.26-1.95,1.31,2a1.48,1.48,0,0,1,.23.79A1.5,1.5,0,0,1,21.19,38Z"/>
      </g>
    </g>
  </g>
</svg>
