<svg id="cubierto" xmlns="http://www.w3.org/2000/svg" viewBox="0 0 40 40">
  <defs>
    <style>.cls-1{fill:#fff;stroke:#6dadc6;stroke-linecap:round;stroke-linejoin:round;stroke-width:1.5px;}</style>
  </defs>
  <title>ico__cubierto</title>
  <g id="_Grupo_" data-name=" Grupo ">
    <path id="_Trazado_" data-name=" Trazado " class="cls-1"
          d="M35.26,20.94a3,3,0,0,0,0-.6,5.9,5.9,0,0,0-5.88-5.92,5.58,5.58,0,0,0-2.92.77,9,9,0,0,0-17.72-.41A9,9,0,0,0,12,32.46a9.12,9.12,0,0,0,4.91-2.68,6.77,6.77,0,0,0,9.52,1.08h0a7.09,7.09,0,0,0,1.34-1.34,5.91,5.91,0,1,0,7.52-8.57Z"/>
  </g>
</svg>
