<svg id="lluvia" xmlns="http://www.w3.org/2000/svg" viewBox="0 0 40 40">
  <defs>
    <style>.cls-1{fill:#fff;stroke:#6dadc6;stroke-linecap:round;stroke-linejoin:round;stroke-width:1.5px;}</style>
  </defs>
  <title>ico__lluvia</title>
  <g id="_Grupo_" data-name=" Grupo ">
    <g id="_Grupo_2" data-name=" Grupo 2">
      <path id="_Trazado_" data-name=" Trazado " class="cls-1"
            d="M32.72,16.21a3.69,3.69,0,0,0,0-.47,4.91,4.91,0,0,0-4.9-4.9,5,5,0,0,0-2.42.65,7.44,7.44,0,0,0-14.7-.34,7.45,7.45,0,0,0,2.61,14.67,7.53,7.53,0,0,0,4.19-2.3,5.63,5.63,0,0,0,7.91.9,5.86,5.86,0,0,0,1.11-1.17,4.9,4.9,0,0,0,8.39-5.05L34.79,18A4.84,4.84,0,0,0,32.72,16.21Z"/>
    </g>
    <g id="_Grupo_3" data-name=" Grupo 3">
      <path id="_Trazado_2" data-name=" Trazado 2" class="cls-1"
            d="M12.47,33.81a1.73,1.73,0,0,1-1.73-1.72h0a1.59,1.59,0,0,1,.25-.9l1.48-2.31L14,31.16a1.69,1.69,0,0,1,.26.91A1.74,1.74,0,0,1,12.47,33.81Z"/>
      <path id="_Trazado_3" data-name=" Trazado 3" class="cls-1"
            d="M20,35a1.74,1.74,0,0,1-1.76-1.72h0a1.75,1.75,0,0,1,.26-.92L20,30.06l1.5,2.32A1.67,1.67,0,0,1,20,35Z"/>
    </g>
  </g>
</svg>
