<svg id="noche-lluvias-aisladas" xmlns="http://www.w3.org/2000/svg" viewBox="0 0 40 40">
  <defs>
    <style>
      .cls-1{fill:#6dadc6;}.cls-1,.cls-2,.cls-3{opacity:0.96;}.cls-2,.cls-4,.cls-5{fill:#fff;}.cls-4{stroke:#6dadc6;}.cls-4,.cls-5,.cls-6{stroke-linecap:round;stroke-linejoin:round;stroke-width:1.5px;}.cls-5,.cls-6{stroke:#0b0a5e;}.cls-6{fill:none;}
    </style>
  </defs>
  <title>ico__noche-lluvias-aisladas</title>
  <path class="cls-1"
        d="M28.9,37.72A2.69,2.69,0,0,1,26.2,35a2.78,2.78,0,0,1,.43-1.42L28,31.48a1.2,1.2,0,0,1,1.7-.14,1,1,0,0,1,.15.14l1.42,2.13A2.39,2.39,0,0,1,31.73,35,2.89,2.89,0,0,1,28.9,37.72Zm0-3.54-.43.71v.28a.58.58,0,0,0,.57.57.58.58,0,0,0,.57-.57c0-.14,0-.14-.15-.28Z"/>
  <polygon class="cls-2"
           points="32.8 18.91 31.54 15.88 29.89 14.29 27.22 12.93 24.27 13.4 22.44 9.61 23.02 6.66 27.69 2.76 29 2.94 28.4 6 28.75 9.73 31.78 12.8 35.56 14.22 38.27 14.46 36.8 16.53 32.8 18.91"/>
  <g id="_Grupo_" data-name=" Grupo " class="cls-3">
    <path id="_Trazado_" data-name=" Trazado " class="cls-4"
          d="M7.73,36.87a1.59,1.59,0,0,1-1.59-1.59h0a1.54,1.54,0,0,1,.24-.83l1.35-2.1,1.42,2.1a1.54,1.54,0,0,1,.24.83,1.6,1.6,0,0,1-1.59,1.6Z"/>
    <path id="_Trazado_2" data-name=" Trazado 2" class="cls-4"
          d="M14.65,38a1.59,1.59,0,0,1-1.59-1.59h0a1.48,1.48,0,0,1,.25-.84l1.34-2.08,1.42,2.08a1.47,1.47,0,0,1,.24.84A1.59,1.59,0,0,1,14.73,38Z"/>
    <path id="_Trazado_3" data-name=" Trazado 3" class="cls-4"
          d="M21.58,38A1.59,1.59,0,0,1,20,36.39h0a1.47,1.47,0,0,1,.24-.84l1.42-2.08,1.42,2.08a1.78,1.78,0,0,1,.22.84A1.59,1.59,0,0,1,21.71,38Z"/>
    <path id="_Trazado_4" data-name=" Trazado 4" class="cls-4"
          d="M28.5,36.87a1.59,1.59,0,0,1-1.59-1.59h0a1.54,1.54,0,0,1,.24-.83l1.35-2.1,1.42,2.1a1.61,1.61,0,0,1,.22.83,1.59,1.59,0,0,1-1.58,1.59Z"/>
  </g>
  <g id="_Grupo_2" data-name=" Grupo 2" class="cls-3">
    <g id="_Grupo_3" data-name=" Grupo 3">
      <path id="_Trazado_6" data-name=" Trazado 6" class="cls-5" d="M32.8,18.91a8.59,8.59,0,0,0,5.67-4.76"/>
      <path id="_Trazado_8" data-name=" Trazado 8" class="cls-5" d="M30.17,2a8.51,8.51,0,0,0-7.8,6.86"/>
      <path id="_Trazado_9" data-name=" Trazado 9" class="cls-6"
            d="M30.26,2a7.42,7.42,0,0,0-1.58,4.59,7.53,7.53,0,0,0,7.51,7.54h0a7.21,7.21,0,0,0,2.31-.37"/>
    </g>
    <g id="_Grupo_4" data-name=" Grupo 4">
      <path id="_Trazado_11" data-name=" Trazado 11" class="cls-4"
            d="M32.17,18.9v-.55A5.36,5.36,0,0,0,26.81,13h0a5.3,5.3,0,0,0-2.64.71,8.14,8.14,0,0,0-16-.38,8.14,8.14,0,1,0,7.37,13.63,6.17,6.17,0,0,0,9.93-.29A5.35,5.35,0,1,0,32.3,18.9Z"/>
    </g>
  </g>
</svg>
